<svg width="186" height="61" viewBox="0 0 186 61" fill="none" xmlns="http://www.w3.org/2000/svg">
<rect x="2.05585" y="11.8833" width="34.9095" height="47.2451" fill="white"/>
<path fill-rule="evenodd" clip-rule="evenodd" d="M39.4737 14.4737C39.4737 12.2934 37.7066 10.5263 35.5263 10.5263C28.7447 10.5263 10.7289 10.5263 3.94737 10.5263C1.76711 10.5263 0 12.2934 0 14.4737V56.5789C0 58.7592 1.76711 60.5263 3.94737 60.5263H35.5263C37.7066 60.5263 39.4737 58.7592 39.4737 56.5789V14.4737ZM36.8421 14.4737V56.5789C36.8421 57.3053 36.2526 57.8947 35.5263 57.8947H3.94737C3.22105 57.8947 2.63158 57.3053 2.63158 56.5789V14.4737C2.63158 13.7474 3.22105 13.1579 3.94737 13.1579H35.5263C36.2526 13.1579 36.8421 13.7474 36.8421 14.4737ZM44.7368 51.3158V9.21053C44.7368 8.16316 44.3211 7.15921 43.5803 6.41973C42.8408 5.67894 41.8368 5.26316 40.7895 5.26316H9.21053C8.48421 5.26316 7.89474 5.85263 7.89474 6.57895C7.89474 7.30526 8.48421 7.89474 9.21053 7.89474H40.7895C41.1382 7.89474 41.4737 8.03289 41.7197 8.28026C41.9671 8.52631 42.1053 8.86184 42.1053 9.21053V51.3158C42.1053 52.0421 42.6947 52.6316 43.4211 52.6316C44.1474 52.6316 44.7368 52.0421 44.7368 51.3158ZM50 46.0526V3.94737C50 2.9 49.5842 1.89605 48.8434 1.15658C48.104 0.415786 47.1 0 46.0526 0H14.4737C13.7474 0 13.1579 0.589474 13.1579 1.31579C13.1579 2.04211 13.7474 2.63158 14.4737 2.63158H46.0526C46.4013 2.63158 46.7368 2.76974 46.9829 3.0171C47.2303 3.26316 47.3684 3.59868 47.3684 3.94737V46.0526C47.3684 46.7789 47.9579 47.3684 48.6842 47.3684C49.4105 47.3684 50 46.7789 50 46.0526ZM9.21053 44.7368H30.2632C30.9895 44.7368 31.5789 44.1474 31.5789 43.4211C31.5789 42.6947 30.9895 42.1053 30.2632 42.1053H9.21053C8.48421 42.1053 7.89474 42.6947 7.89474 43.4211C7.89474 44.1474 8.48421 44.7368 9.21053 44.7368ZM9.21053 39.4737H30.2632C30.9895 39.4737 31.5789 38.8842 31.5789 38.1579C31.5789 37.4316 30.9895 36.8421 30.2632 36.8421H9.21053C8.48421 36.8421 7.89474 37.4316 7.89474 38.1579C7.89474 38.8842 8.48421 39.4737 9.21053 39.4737ZM9.21053 34.2105H30.2632C30.9895 34.2105 31.5789 33.6211 31.5789 32.8947C31.5789 32.1684 30.9895 31.5789 30.2632 31.5789H9.21053C8.48421 31.5789 7.89474 32.1684 7.89474 32.8947C7.89474 33.6211 8.48421 34.2105 9.21053 34.2105ZM9.21053 28.9474H30.2632C30.9895 28.9474 31.5789 28.3579 31.5789 27.6316C31.5789 26.9053 30.9895 26.3158 30.2632 26.3158H9.21053C8.48421 26.3158 7.89474 26.9053 7.89474 27.6316C7.89474 28.3579 8.48421 28.9474 9.21053 28.9474Z" fill="#F7B733"/>
<path d="M78.9668 12.3633V19.9512C78.7227 20.3125 78.3027 20.7129 77.707 21.1523C77.1113 21.5918 76.3105 21.9775 75.3047 22.3096C74.2988 22.6318 73.0488 22.793 71.5547 22.793C70.3047 22.793 69.1572 22.5684 68.1123 22.1191C67.0674 21.6699 66.1592 21.0205 65.3877 20.1709C64.626 19.3115 64.0352 18.2812 63.6152 17.0801C63.2051 15.8789 63 14.5312 63 13.0371V10.459C63 8.99414 63.1904 7.67578 63.5713 6.50391C63.9521 5.32227 64.5039 4.31152 65.2266 3.47168C65.9492 2.63184 66.8184 1.99219 67.834 1.55273C68.8594 1.10352 70.0068 0.878906 71.2764 0.878906C72.8584 0.878906 74.1914 1.15234 75.2754 1.69922C76.3594 2.24609 77.2041 2.99805 77.8096 3.95508C78.4248 4.90234 78.8057 5.97656 78.9521 7.17773H77.1504C77.0137 6.32812 76.7305 5.54688 76.3008 4.83398C75.8711 4.11133 75.2461 3.53027 74.4258 3.09082C73.6152 2.65137 72.5654 2.43164 71.2764 2.43164C70.2412 2.43164 69.3184 2.62207 68.5078 3.00293C67.707 3.38379 67.0332 3.92578 66.4863 4.62891C65.9395 5.33203 65.5244 6.17676 65.2412 7.16309C64.958 8.13965 64.8164 9.22852 64.8164 10.4297V13.0371C64.8164 14.2871 64.9727 15.415 65.2852 16.4209C65.6074 17.4268 66.0664 18.291 66.6621 19.0137C67.2578 19.7363 67.9707 20.293 68.8008 20.6836C69.6309 21.0645 70.5537 21.2549 71.5693 21.2549C72.6533 21.2549 73.5762 21.1523 74.3379 20.9473C75.0996 20.7422 75.71 20.498 76.1689 20.2148C76.6377 19.9219 76.9746 19.6484 77.1797 19.3945V13.9014H71.4521V12.3633H78.9668Z" fill="white"/>
<path d="M89.8359 22.793C88.8008 22.793 87.8486 22.6025 86.9795 22.2217C86.1201 21.8408 85.3682 21.3037 84.7236 20.6104C84.0889 19.917 83.5957 19.0967 83.2441 18.1494C82.9023 17.1924 82.7314 16.1475 82.7314 15.0146V14.3848C82.7314 13.1641 82.9121 12.0605 83.2734 11.0742C83.6348 10.0879 84.1328 9.24316 84.7676 8.54004C85.4023 7.83691 86.125 7.2998 86.9355 6.92871C87.7559 6.54785 88.6152 6.35742 89.5137 6.35742C90.5195 6.35742 91.4131 6.53809 92.1943 6.89941C92.9756 7.25098 93.6299 7.75391 94.1572 8.4082C94.6943 9.05273 95.0996 9.81934 95.373 10.708C95.6465 11.5869 95.7832 12.5586 95.7832 13.623V14.6924H83.7861V13.1982H94.04V12.9932C94.0205 12.1045 93.8398 11.2744 93.498 10.5029C93.166 9.72168 92.668 9.08691 92.0039 8.59863C91.3398 8.11035 90.5098 7.86621 89.5137 7.86621C88.7715 7.86621 88.0879 8.02246 87.4629 8.33496C86.8477 8.64746 86.3154 9.09668 85.8662 9.68262C85.4268 10.2588 85.085 10.9473 84.8408 11.748C84.6064 12.5391 84.4893 13.418 84.4893 14.3848V15.0146C84.4893 15.8936 84.6162 16.7139 84.8701 17.4756C85.1338 18.2275 85.5049 18.8916 85.9834 19.4678C86.4717 20.0439 87.0479 20.4932 87.7119 20.8154C88.376 21.1377 89.1084 21.2988 89.9092 21.2988C90.8467 21.2988 91.6768 21.1279 92.3994 20.7861C93.1221 20.4346 93.7715 19.8828 94.3477 19.1309L95.4463 19.9805C95.1045 20.4883 94.6748 20.957 94.1572 21.3867C93.6494 21.8164 93.0391 22.1582 92.3262 22.4121C91.6133 22.666 90.7832 22.793 89.8359 22.793Z" fill="white"/>
<path d="M100.983 9.27246V22.5H99.2402V6.65039H100.939L100.983 9.27246ZM106.594 6.5332L106.55 8.14453C106.354 8.11523 106.164 8.09082 105.979 8.07129C105.793 8.05176 105.593 8.04199 105.378 8.04199C104.616 8.04199 103.947 8.18359 103.371 8.4668C102.805 8.74023 102.326 9.12598 101.936 9.62402C101.545 10.1123 101.247 10.6885 101.042 11.3525C100.837 12.0068 100.72 12.71 100.69 13.4619L100.046 13.7109C100.046 12.6758 100.153 11.7139 100.368 10.8252C100.583 9.93652 100.91 9.16016 101.35 8.49609C101.799 7.82227 102.36 7.2998 103.034 6.92871C103.718 6.54785 104.519 6.35742 105.437 6.35742C105.661 6.35742 105.881 6.37695 106.096 6.41602C106.32 6.44531 106.486 6.48438 106.594 6.5332Z" fill="white"/>
<path d="M118.4 19.6582V11.4844C118.4 10.7324 118.244 10.083 117.932 9.53613C117.619 8.98926 117.16 8.56934 116.555 8.27637C115.949 7.9834 115.202 7.83691 114.313 7.83691C113.493 7.83691 112.761 7.9834 112.116 8.27637C111.481 8.55957 110.979 8.94531 110.607 9.43359C110.246 9.91211 110.065 10.4443 110.065 11.0303L108.308 11.0156C108.308 10.4199 108.454 9.84375 108.747 9.28711C109.04 8.73047 109.455 8.23242 109.992 7.79297C110.529 7.35352 111.169 7.00684 111.911 6.75293C112.663 6.48926 113.488 6.35742 114.387 6.35742C115.52 6.35742 116.516 6.54785 117.375 6.92871C118.244 7.30957 118.923 7.88086 119.411 8.64258C119.899 9.4043 120.144 10.3613 120.144 11.5137V19.1748C120.144 19.7217 120.183 20.2881 120.261 20.874C120.349 21.46 120.471 21.9434 120.627 22.3242V22.5H118.767C118.649 22.1484 118.557 21.709 118.488 21.1816C118.43 20.6445 118.4 20.1367 118.4 19.6582ZM118.811 13.2715L118.84 14.6191H115.397C114.499 14.6191 113.693 14.7021 112.98 14.8682C112.277 15.0244 111.682 15.2588 111.193 15.5713C110.705 15.874 110.329 16.2402 110.065 16.6699C109.812 17.0996 109.685 17.5879 109.685 18.1348C109.685 18.7012 109.826 19.2188 110.109 19.6875C110.402 20.1562 110.812 20.5322 111.34 20.8154C111.877 21.0889 112.512 21.2256 113.244 21.2256C114.221 21.2256 115.08 21.0449 115.822 20.6836C116.574 20.3223 117.194 19.8486 117.683 19.2627C118.171 18.6768 118.498 18.0371 118.664 17.3438L119.426 18.3545C119.299 18.8428 119.064 19.3457 118.723 19.8633C118.391 20.3711 117.956 20.8496 117.419 21.2988C116.882 21.7383 116.247 22.0996 115.515 22.3828C114.792 22.6562 113.972 22.793 113.054 22.793C112.019 22.793 111.115 22.5977 110.344 22.207C109.582 21.8164 108.986 21.2842 108.557 20.6104C108.137 19.9268 107.927 19.1553 107.927 18.2959C107.927 17.5146 108.093 16.8164 108.425 16.2012C108.757 15.5762 109.235 15.0488 109.86 14.6191C110.495 14.1797 111.257 13.8477 112.146 13.623C113.044 13.3887 114.05 13.2715 115.163 13.2715H118.811Z" fill="white"/>
<path d="M135.144 19.4238V0H136.901V22.5H135.261L135.144 19.4238ZM124.143 14.7363V14.4287C124.143 13.1982 124.284 12.0898 124.567 11.1035C124.851 10.1074 125.256 9.25781 125.783 8.55469C126.32 7.8418 126.965 7.2998 127.717 6.92871C128.469 6.54785 129.318 6.35742 130.266 6.35742C131.193 6.35742 132.014 6.50879 132.727 6.81152C133.439 7.11426 134.05 7.54883 134.558 8.11523C135.075 8.68164 135.49 9.35547 135.803 10.1367C136.125 10.918 136.359 11.7871 136.506 12.7441V16.6553C136.389 17.5537 136.174 18.3789 135.861 19.1309C135.549 19.873 135.134 20.5225 134.616 21.0791C134.099 21.626 133.474 22.0508 132.741 22.3535C132.019 22.6465 131.184 22.793 130.236 22.793C129.299 22.793 128.454 22.5977 127.702 22.207C126.95 21.8164 126.311 21.2646 125.783 20.5518C125.256 19.8291 124.851 18.9746 124.567 17.9883C124.284 17.002 124.143 15.918 124.143 14.7363ZM125.9 14.4287V14.7363C125.9 15.6641 125.993 16.5234 126.179 17.3145C126.364 18.1055 126.647 18.7939 127.028 19.3799C127.409 19.9658 127.893 20.4248 128.479 20.7568C129.064 21.0889 129.758 21.2549 130.559 21.2549C131.564 21.2549 132.409 21.0645 133.093 20.6836C133.776 20.293 134.323 19.7803 134.733 19.1455C135.144 18.501 135.441 17.7979 135.627 17.0361V12.4805C135.51 11.9629 135.339 11.4355 135.114 10.8984C134.89 10.3613 134.582 9.86816 134.191 9.41895C133.811 8.95996 133.322 8.59375 132.727 8.32031C132.141 8.03711 131.428 7.89551 130.588 7.89551C129.777 7.89551 129.079 8.06152 128.493 8.39355C127.907 8.72559 127.419 9.18945 127.028 9.78516C126.647 10.3711 126.364 11.0596 126.179 11.8506C125.993 12.6416 125.9 13.501 125.9 14.4287Z" fill="white"/>
<path d="M140.549 14.8242V14.3408C140.549 13.1885 140.715 12.124 141.047 11.1475C141.379 10.1709 141.853 9.32617 142.468 8.61328C143.093 7.90039 143.84 7.34863 144.709 6.95801C145.578 6.55762 146.545 6.35742 147.609 6.35742C148.684 6.35742 149.655 6.55762 150.524 6.95801C151.394 7.34863 152.141 7.90039 152.766 8.61328C153.391 9.32617 153.869 10.1709 154.201 11.1475C154.533 12.124 154.699 13.1885 154.699 14.3408V14.8242C154.699 15.9766 154.533 17.041 154.201 18.0176C153.869 18.9844 153.391 19.8242 152.766 20.5371C152.15 21.25 151.408 21.8066 150.539 22.207C149.67 22.5977 148.703 22.793 147.639 22.793C146.564 22.793 145.593 22.5977 144.724 22.207C143.854 21.8066 143.107 21.25 142.482 20.5371C141.857 19.8242 141.379 18.9844 141.047 18.0176C140.715 17.041 140.549 15.9766 140.549 14.8242ZM142.292 14.3408V14.8242C142.292 15.6934 142.409 16.5186 142.644 17.2998C142.878 18.0713 143.22 18.7598 143.669 19.3652C144.118 19.9609 144.675 20.4297 145.339 20.7715C146.003 21.1133 146.77 21.2842 147.639 21.2842C148.498 21.2842 149.255 21.1133 149.909 20.7715C150.573 20.4297 151.13 19.9609 151.579 19.3652C152.028 18.7598 152.365 18.0713 152.59 17.2998C152.824 16.5186 152.941 15.6934 152.941 14.8242V14.3408C152.941 13.4814 152.824 12.666 152.59 11.8945C152.365 11.123 152.023 10.4346 151.564 9.8291C151.115 9.22363 150.559 8.74512 149.895 8.39355C149.23 8.04199 148.469 7.86621 147.609 7.86621C146.75 7.86621 145.988 8.04199 145.324 8.39355C144.67 8.74512 144.113 9.22363 143.654 9.8291C143.205 10.4346 142.863 11.123 142.629 11.8945C142.404 12.666 142.292 13.4814 142.292 14.3408Z" fill="white"/>
<path d="M160.075 9.27246V22.5H158.332V6.65039H160.031L160.075 9.27246ZM165.686 6.5332L165.642 8.14453C165.446 8.11523 165.256 8.09082 165.07 8.07129C164.885 8.05176 164.685 8.04199 164.47 8.04199C163.708 8.04199 163.039 8.18359 162.463 8.4668C161.896 8.74023 161.418 9.12598 161.027 9.62402C160.637 10.1123 160.339 10.6885 160.134 11.3525C159.929 12.0068 159.812 12.71 159.782 13.4619L159.138 13.7109C159.138 12.6758 159.245 11.7139 159.46 10.8252C159.675 9.93652 160.002 9.16016 160.441 8.49609C160.891 7.82227 161.452 7.2998 162.126 6.92871C162.81 6.54785 163.61 6.35742 164.528 6.35742C164.753 6.35742 164.973 6.37695 165.188 6.41602C165.412 6.44531 165.578 6.48438 165.686 6.5332Z" fill="white"/>
<path d="M72.2822 55.5H65.9736L66.0127 50.2266H72.2822C73.5843 50.2266 74.6846 49.9141 75.583 49.2891C76.4945 48.6641 77.1846 47.7331 77.6533 46.4961C78.1351 45.2461 78.376 43.7096 78.376 41.8867V40.6562C78.376 39.2891 78.2393 38.0911 77.9658 37.0625C77.7054 36.0208 77.3148 35.1549 76.7939 34.4648C76.2731 33.7617 75.6221 33.2344 74.8408 32.8828C74.0726 32.5312 73.1872 32.3555 72.1846 32.3555H65.8564V27.0625H72.1846C74.1117 27.0625 75.876 27.3945 77.4775 28.0586C79.0921 28.7096 80.4854 29.6471 81.6572 30.8711C82.8421 32.082 83.7536 33.5208 84.3916 35.1875C85.0426 36.8411 85.3682 38.6771 85.3682 40.6953V41.8867C85.3682 43.8919 85.0426 45.7279 84.3916 47.3945C83.7536 49.0612 82.8486 50.5 81.6768 51.7109C80.5049 52.9219 79.1182 53.8594 77.5166 54.5234C75.9281 55.1745 74.1833 55.5 72.2822 55.5ZM69.8994 27.0625V55.5H63.0439V27.0625H69.8994Z" fill="white"/>
<path d="M100.563 33.0391L93.6299 55.5H86.2666L96.7158 27.0625H101.384L100.563 33.0391ZM106.306 55.5L99.3525 33.0391L98.4541 27.0625H103.181L113.688 55.5H106.306ZM106.032 44.8945V50.1875H91.4424V44.8945H106.032Z" fill="white"/>
<path d="M139.528 27.0625V55.5H132.692L122.634 37.8047V55.5H115.778V27.0625H122.634L132.692 44.7578V27.0625H139.528Z" fill="white"/>
<path d="M150.72 27.0625V55.5H143.864V27.0625H150.72ZM161.774 38.8984V44.1719H148.767V38.8984H161.774ZM162.888 27.0625V32.3555H148.767V27.0625H162.888Z" fill="white"/>
<path d="M185.31 50.2266V55.5H170.153V50.2266H185.31ZM172.595 27.0625V55.5H165.739V27.0625H172.595ZM183.356 38.3516V43.4492H170.153V38.3516H183.356ZM185.368 27.0625V32.3555H170.153V27.0625H185.368Z" fill="white"/>
</svg>
