<svg width="457" height="361" viewBox="0 0 457 361" fill="none" xmlns="http://www.w3.org/2000/svg">
<g clip-path="url(#clip0_3_2)">
<path opacity="0.5" d="M85.0188 220.258L43.3769 196.191C42.7022 195.806 42.7986 195.036 43.5697 194.555L84.826 170.873C85.6935 170.392 86.8502 170.392 87.6214 170.777L129.263 194.747C129.938 195.133 129.842 195.903 129.07 196.384L87.8142 220.162C86.9466 220.547 85.6935 220.643 85.0188 220.258Z" fill="#EA4753"/>
<path d="M86.1755 232.58C85.4043 232.58 84.7296 232.388 84.1512 232.099L23.2307 196.962C22.6524 196.577 22.2668 196.095 22.2668 195.518C22.2668 194.844 22.7488 194.266 23.5199 193.785L83.862 159.033C85.2116 158.262 87.2358 158.166 88.3925 158.84L149.313 193.977C149.891 194.362 150.277 194.844 150.277 195.421C150.277 196.095 149.795 196.673 149.024 197.154L88.6817 231.906C88.007 232.292 87.043 232.58 86.1755 232.58ZM84.6332 231.329C85.5007 231.81 87.1394 231.81 88.1997 231.136L148.542 196.384C149.024 196.095 149.313 195.71 149.313 195.421C149.313 195.133 149.024 194.94 148.831 194.844L87.9106 159.706C87.043 159.225 85.4043 159.225 84.344 159.899L24.0019 194.651C23.5199 194.94 23.2307 195.325 23.2307 195.614C23.2307 195.903 23.5199 196.095 23.7127 196.192L84.6332 231.329Z" fill="#F7B733"/>
<path d="M129.649 178.478V170.488H116.539L87.525 153.738C86.8502 153.353 85.5971 153.353 84.7296 153.834L55.8116 170.488H42.7986V178.575C42.7986 178.863 42.9913 179.056 43.2805 179.249L84.9224 203.219C85.5971 203.604 86.8502 203.604 87.7178 203.123L128.974 179.345C129.456 179.056 129.649 178.767 129.649 178.478Z" fill="url(#paint0_linear_3_2)"/>
<path d="M85.0187 195.229L43.3769 171.162C42.7022 170.777 42.7985 170.007 43.5697 169.526L84.826 145.844C85.6935 145.363 86.8502 145.363 87.6214 145.748L129.263 169.718C129.938 170.103 129.842 170.873 129.07 171.355L87.8141 195.133C86.9466 195.518 85.6935 195.614 85.0187 195.229Z" fill="url(#paint1_linear_3_2)"/>
<path d="M85.1152 192.437L48.1966 171.066C47.5218 170.681 47.6182 170.103 48.3894 169.622L84.9224 148.54C85.6935 148.154 86.7538 148.058 87.4286 148.443L124.347 169.718C125.022 170.103 124.926 170.681 124.154 171.162L87.6214 192.245C86.8502 192.726 85.7899 192.726 85.1152 192.437Z" fill="#EA4753"/>
<path d="M85.2116 190.608L51.2812 171.066C50.7028 170.777 50.7992 170.103 51.4739 169.718L85.0188 150.369C85.6935 149.983 86.6574 149.983 87.2358 150.272L121.166 169.814C121.745 170.103 121.648 170.777 120.973 171.162L87.4286 190.512C86.8502 190.897 85.7899 190.897 85.2116 190.608Z" fill="#EA4753"/>
<path d="M85.5007 169.141L81.5486 166.926L83.6693 165.675L87.7178 167.889L85.5007 169.141Z" fill="#F7B733"/>
<path d="M92.923 168.852L88.8745 171.162L86.7538 169.911L90.706 167.6L92.923 168.852Z" fill="#F7B733"/>
<path d="M84.6332 169.718L82.4161 170.97L80.2955 169.718L82.4161 168.467L84.6332 169.718Z" fill="#F7B733"/>
<path d="M92.0555 174.05L89.9348 175.302L83.6693 171.643L85.8863 170.392L92.0555 174.05Z" fill="#F7B733"/>
<path d="M86.2719 297.368C85.4044 297.368 84.5368 297.175 83.8621 296.694L0.674752 248.849C0.192786 248.561 0 248.079 0 247.598C0 247.117 0.289179 246.635 0.674752 246.346L55.4261 214.771L55.908 215.541L1.15672 247.117C0.963932 247.213 0.867539 247.502 0.867539 247.598C0.867539 247.694 0.867539 247.887 1.15672 248.079L84.2476 295.924C85.5007 296.598 87.043 296.598 88.1997 295.924L157.699 256.647L158.181 257.417L88.6817 296.694C88.007 297.175 87.1394 297.368 86.2719 297.368Z" fill="#F7B733"/>
<path d="M306.434 341.747C304.795 341.747 303.253 341.458 302.096 340.784L151.048 253.663C149.891 252.989 149.217 252.026 149.217 250.967C149.217 249.716 150.181 248.464 151.723 247.502L164.832 239.897C167.724 238.26 172.158 238.067 174.664 239.511L325.809 326.633C326.966 327.307 327.64 328.269 327.64 329.328C327.64 330.58 326.676 331.831 325.134 332.794L312.025 340.399C310.386 341.265 308.362 341.747 306.434 341.747ZM170.519 239.415C168.784 239.415 166.857 239.8 165.411 240.667L152.301 248.272C150.952 249.042 150.277 250.005 150.277 250.967C150.277 251.737 150.759 252.411 151.626 252.893L302.675 340.014C304.988 341.362 308.94 341.169 311.639 339.629L324.749 332.024C326.098 331.254 326.773 330.291 326.773 329.328C326.773 328.558 326.291 327.884 325.423 327.403L174.375 240.282C173.315 239.704 171.965 239.415 170.519 239.415Z" fill="#F7B733"/>
<path d="M300.361 174.435C299.494 174.435 298.722 174.243 297.951 173.761L272.407 159.033C271.829 158.744 271.54 158.07 271.54 157.492C271.54 156.915 271.925 156.241 272.407 155.952L327.737 124.088C329.279 123.221 331.111 123.221 332.556 124.088L358.101 138.817C358.679 139.105 358.968 139.779 358.968 140.357C358.968 141.031 358.583 141.608 358.101 141.897L302.771 173.761C302.096 174.243 301.229 174.435 300.361 174.435ZM330.243 124.28C329.568 124.28 328.894 124.473 328.315 124.762L272.985 156.626C272.696 156.818 272.504 157.107 272.504 157.396C272.504 157.685 272.696 158.07 272.985 158.166L298.53 172.895C299.783 173.569 301.229 173.569 302.482 172.895L357.811 141.031C358.101 140.838 358.293 140.549 358.293 140.261C358.293 139.972 358.101 139.587 357.811 139.49L332.267 124.762C331.593 124.377 330.918 124.28 330.243 124.28Z" fill="#F7B733"/>
<path d="M329.665 226.997C328.508 226.997 327.448 226.708 326.484 226.13L301.518 211.69C301.036 211.402 300.65 210.824 300.65 210.246C300.65 209.669 300.939 209.091 301.518 208.802L326.484 194.362C328.508 193.207 330.918 193.207 332.942 194.362L357.908 208.802C358.39 209.091 358.775 209.669 358.775 210.246C358.775 210.824 358.486 211.402 357.908 211.69L332.942 226.13C331.882 226.708 330.821 226.997 329.665 226.997ZM329.665 194.459C328.701 194.459 327.737 194.747 326.869 195.229L301.903 209.669C301.711 209.765 301.518 210.054 301.518 210.343C301.518 210.631 301.614 210.824 301.903 211.017L326.869 225.457C328.604 226.419 330.725 226.419 332.46 225.457L357.426 211.017C357.619 210.92 357.811 210.631 357.811 210.343C357.811 210.054 357.715 209.861 357.426 209.669L332.46 195.229C331.592 194.747 330.629 194.459 329.665 194.459Z" fill="#F7B733"/>
<path d="M180.834 7.41253L193.461 0.0962639C193.943 -0.192536 194.618 -0.192536 195.293 0.288797L304.313 63.1509C305.952 64.1136 307.301 66.6165 307.301 68.8307V316.429C307.301 317.584 306.916 318.45 306.241 318.835L293.614 326.151L293.324 312.385L195.293 255.877C193.654 254.914 192.304 252.411 192.304 250.197V13.9587C192.015 14.7288 191.822 15.3064 191.822 15.4027L180.834 7.41253Z" fill="url(#paint2_linear_3_2)"/>
<path d="M307.301 67.9643L274.335 86.9288L269.323 84.0408L304.892 63.536C306.048 64.4987 307.012 66.2315 307.301 67.9643Z" fill="url(#paint3_linear_3_2)"/>
<path d="M182.761 263.097L291.782 325.959C293.421 326.922 294.77 325.863 294.77 323.745V76.0507C294.77 73.8366 293.421 71.3337 291.782 70.371L182.761 7.60512C181.123 6.64246 179.773 7.70139 179.773 9.81926V257.417C179.773 259.631 181.123 262.134 182.761 263.097Z" fill="url(#paint4_linear_3_2)"/>
<path d="M179.773 243.94L294.77 310.171V89.6243L179.773 23.3928V243.94Z" fill="#EA4753"/>
<path d="M179.773 243.94L294.77 310.171V89.6243L179.773 23.3928V243.94Z" fill="#EA4753"/>
<g opacity="0.51">
<path d="M179.773 236.142L294.77 302.47V96.748L179.773 30.4203V236.142Z" fill="#EA4753"/>
</g>
<path d="M228.355 44.9565L249.176 56.9899C249.755 57.375 250.333 57.4712 250.526 56.8936C250.622 56.7011 250.622 56.5086 250.622 56.2198C250.622 55.1608 249.947 53.9093 249.176 53.428L228.163 41.2984C228.066 41.2984 228.066 41.2021 227.97 41.2021C227.295 41.3947 227.199 41.4909 227.199 42.5499L227.295 42.8387C227.199 43.8976 227.488 44.5715 228.355 44.9565Z" fill="#5778FF"/>
<path d="M227.873 41.2022C227.777 41.3947 227.777 41.5872 227.777 41.876C227.777 42.935 228.452 44.1864 229.223 44.6678L250.237 56.7974C250.333 56.7974 250.333 56.8936 250.429 56.8936C250.237 57.4712 249.658 57.6638 249.08 57.2787L228.066 45.2454C227.295 44.764 226.62 43.5126 226.62 42.4536C226.62 41.3947 227.199 40.9134 227.873 41.2022Z" fill="#BCD5FF"/>
<path d="M301.421 96.6518L301.614 96.5555C302 96.363 302.385 96.363 302.578 96.4592L303.446 96.9406H302.964C303.06 97.1331 303.06 97.4219 303.06 97.7107V112.054C303.06 113.21 302.385 114.557 301.421 115.135L301.229 115.231C301.132 115.327 301.036 115.327 300.939 115.327L301.132 115.809L300.168 115.231C299.783 115.039 299.59 114.557 299.59 113.98V99.636C299.879 98.4808 300.554 97.1331 301.421 96.6518Z" fill="#E9FFFF"/>
<path d="M302.385 115.713L302.578 115.616C303.446 115.135 304.217 113.787 304.217 112.536V98.192C304.217 97.0368 303.542 96.4592 302.578 97.0368L302.385 97.133C301.518 97.6144 300.747 98.9621 300.747 100.214V114.557C300.747 115.713 301.518 116.29 302.385 115.713Z" fill="#BCD5FF"/>
<path d="M301.421 118.504L301.614 118.408C302 118.216 302.385 118.216 302.578 118.312L303.446 118.793H302.964C303.06 118.986 303.06 119.274 303.06 119.563V133.907C303.06 135.062 302.385 136.41 301.421 136.988L301.229 137.084C301.132 137.18 301.036 137.18 300.939 137.18L301.132 137.661L300.168 137.084C299.783 136.891 299.59 136.41 299.59 135.832V121.489C299.879 120.43 300.554 119.082 301.421 118.504Z" fill="#E9FFFF"/>
<path d="M302.385 137.661L302.578 137.565C303.446 137.084 304.217 135.736 304.217 134.485V120.141C304.217 118.986 303.542 118.408 302.578 118.986L302.385 119.082C301.518 119.563 300.747 120.911 300.747 122.162V136.506C300.747 137.565 301.518 138.143 302.385 137.661Z" fill="#BCD5FF"/>
<path opacity="0.6" d="M179.773 257.417V117.83C184.015 106.086 192.497 94.8226 202.233 89.2391L278.865 133.426C264.888 141.512 253.514 161.15 253.514 177.323V299.582C253.514 300.93 253.418 302.374 253.225 303.818L182.761 263.193C181.123 262.134 179.773 259.631 179.773 257.417Z" fill="#EA4753"/>
<path d="M180.641 73.8365L188.449 69.3119C188.545 69.2157 188.641 69.2157 188.834 69.3119L286.577 125.628C286.866 125.82 287.155 126.302 287.155 126.687V145.074C287.155 145.266 287.059 145.459 286.962 145.459L279.058 149.983L278.962 141.127L188.738 89.1429C188.449 88.9503 188.159 88.469 188.159 88.0839V81.7303L180.641 73.8365Z" fill="url(#paint5_linear_3_2)"/>
<path d="M181.026 93.8599L278.769 150.176C279.058 150.368 279.347 150.176 279.347 149.695V131.308C279.347 130.923 279.058 130.345 278.769 130.249L181.026 73.8365C180.737 73.6439 180.448 73.8365 180.448 74.3178V92.7047C180.448 93.1861 180.641 93.6674 181.026 93.8599Z" fill="url(#paint6_linear_3_2)"/>
<path opacity="0.6" d="M194.425 90.1056L270.576 134.773C268.262 136.795 265.949 139.105 263.924 141.608L187.292 97.4219C189.509 94.7264 191.919 92.2235 194.425 90.1056Z" fill="#EA4753"/>
<path d="M183.725 88.2765L275.877 141.416C276.07 141.512 276.263 141.416 276.263 141.127V136.506C276.263 136.217 276.07 135.832 275.877 135.736L183.725 82.5968C183.533 82.5005 183.34 82.5968 183.34 82.8856V87.5064C183.34 87.7952 183.533 88.1802 183.725 88.2765Z" fill="#EA4753"/>
<path d="M183.725 82.5968L185.557 83.6557V86.1586C185.557 86.4474 185.75 86.8325 185.942 86.9288L276.263 139.009V141.127C276.263 141.416 276.07 141.512 275.877 141.416L183.725 88.2765C183.533 88.1802 183.34 87.7952 183.34 87.5064V82.8856C183.34 82.5968 183.533 82.5005 183.725 82.5968Z" fill="#EA4753"/>
<path opacity="0.96" d="M221.801 335.008L145.168 290.822C157.121 283.987 166.76 267.236 166.76 253.47V131.211C166.76 115.039 178.135 95.4002 192.112 87.3138L268.744 131.5C254.767 139.587 243.393 159.225 243.393 175.398V297.657C243.393 311.423 233.657 328.077 221.801 335.008Z" fill="url(#paint7_linear_3_2)"/>
<path opacity="0.8" d="M192.015 87.41L268.648 131.596C268.069 131.981 267.395 132.367 266.816 132.752L190.184 88.5652C190.858 88.0839 191.437 87.6988 192.015 87.41Z" fill="#EA4753"/>
<path d="M278.383 180.019L281.372 181.751V179.73L278.383 177.997V180.019Z" fill="#F7B733"/>
<path d="M278.383 193.688L281.372 195.421V183.58L278.383 181.848V193.688Z" fill="#F7B733"/>
<path d="M278.383 200.235L281.372 201.967V197.347L278.383 195.518V200.235Z" fill="#F7B733"/>
<path d="M278.383 207.07L281.372 208.802V204.085L278.383 202.353V207.07Z" fill="#F7B733"/>
<path d="M273.853 183.966L276.841 185.698V180.981L273.853 179.249V183.966Z" fill="#F7B733"/>
<path d="M273.853 192.918L276.841 194.747V187.816L273.853 186.083V192.918Z" fill="#F7B733"/>
<path d="M273.853 201.197L276.841 202.93V197.058L273.853 195.325V201.197Z" fill="#F7B733"/>
<path d="M278.383 213.808L281.372 215.541V210.824L278.383 209.091V213.808Z" fill="#F7B733"/>
<path d="M273.853 177.419L276.841 179.152V177.131L273.853 175.398V177.419Z" fill="#F7B733"/>
<path d="M276.07 219.103L281.372 222.183V220.162L276.07 217.178V219.103Z" fill="#F7B733"/>
<path opacity="0.5" d="M394.441 303.625L352.799 279.655C352.124 279.27 352.221 278.499 352.992 278.018L394.248 254.24C395.116 253.759 396.272 253.759 397.043 254.144L438.685 278.114C439.36 278.499 439.264 279.27 438.492 279.751L397.236 303.529C396.369 304.01 395.116 304.01 394.441 303.625Z" fill="#EA4753"/>
<path d="M395.598 314.407C394.923 314.407 394.152 314.215 393.67 313.926L335.352 280.232C334.773 279.944 334.484 279.366 334.484 278.885C334.484 278.307 334.87 277.633 335.641 277.248L393.477 243.94C394.73 243.17 396.658 243.17 397.815 243.747L456.132 277.441C456.711 277.729 457 278.307 457 278.788C457 279.366 456.614 280.04 455.843 280.425L398.007 313.733C397.333 314.214 396.465 314.407 395.598 314.407ZM395.887 244.229C395.212 244.229 394.441 244.421 393.862 244.71L336.027 278.018C335.545 278.307 335.255 278.596 335.255 278.885C335.255 279.173 335.545 279.366 335.737 279.462L394.055 313.156C394.923 313.637 396.465 313.541 397.525 312.963L455.361 279.655C455.843 279.366 456.132 279.077 456.132 278.788C456.132 278.5 455.843 278.307 455.651 278.211L397.333 244.517C396.947 244.421 396.369 244.229 395.887 244.229Z" fill="#F7B733"/>
<path d="M439.167 263.001V255.01H426.058L397.043 238.26C396.369 237.875 395.116 237.875 394.248 238.356L365.33 255.01H352.317V263.097C352.317 263.386 352.51 263.578 352.799 263.771L394.441 287.741C395.116 288.126 396.369 288.126 397.236 287.645L438.493 263.867C438.878 263.578 439.071 263.289 439.167 263.001Z" fill="url(#paint8_linear_3_2)"/>
<path d="M394.441 279.655L352.799 255.684C352.124 255.299 352.221 254.529 352.992 254.048L394.248 230.27C395.116 229.789 396.272 229.789 397.044 230.174L438.685 254.144C439.36 254.529 439.264 255.299 438.493 255.781L397.236 279.558C396.369 280.04 395.116 280.136 394.441 279.655Z" fill="url(#paint9_linear_3_2)"/>
<path d="M394.441 279.655L352.799 255.684C352.124 255.299 352.221 254.529 352.992 254.048L394.248 230.27C395.116 229.789 396.272 229.789 397.044 230.174L438.685 254.144C439.36 254.529 439.264 255.299 438.493 255.781L397.236 279.558C396.369 280.04 395.116 280.136 394.441 279.655Z" fill="url(#paint10_linear_3_2)"/>
<path d="M394.537 276.863L357.619 255.588C356.944 255.203 357.04 254.625 357.811 254.144L394.344 233.062C395.116 232.677 396.176 232.58 396.851 232.965L433.769 254.24C434.444 254.625 434.348 255.203 433.576 255.684L397.043 276.767C396.272 277.248 395.212 277.248 394.537 276.863Z" fill="#EA4753"/>
<path d="M394.634 275.13L360.703 255.588C360.125 255.299 360.221 254.625 360.896 254.24L394.441 234.891C395.116 234.506 396.08 234.506 396.658 234.794L430.588 254.337C431.167 254.625 431.07 255.299 430.395 255.684L396.851 275.034C396.272 275.419 395.212 275.419 394.634 275.13Z" fill="#EA4753"/>
<path d="M394.923 253.663L390.971 251.352L393.188 250.101L397.14 252.411L394.923 253.663Z" fill="#F7B733"/>
<path d="M402.345 253.374L398.393 255.588L396.176 254.337L400.128 252.122L402.345 253.374Z" fill="#F7B733"/>
<path d="M394.055 254.144L391.838 255.395L389.718 254.144L391.838 252.893L394.055 254.144Z" fill="#F7B733"/>
<path d="M401.478 258.476L399.357 259.728L393.091 256.166L395.308 254.914L401.478 258.476Z" fill="#F7B733"/>
<path opacity="0.4" d="M439.167 244.132L421.431 244.229L397.043 230.174C396.369 229.789 395.116 229.789 394.248 230.27L369.475 244.517L352.317 244.614V255.107C352.317 255.299 352.51 255.492 352.799 255.684L394.441 279.655C395.116 280.04 396.369 280.04 397.236 279.558L438.493 255.781C438.878 255.588 439.071 255.299 439.167 255.01V244.132Z" fill="#F7B733"/>
<path d="M439.167 245.191V237.201H426.058L397.043 220.451C396.369 220.066 395.116 220.066 394.248 220.547L365.33 237.201H352.317V245.288C352.317 245.576 352.51 245.769 352.799 245.961L394.441 269.932C395.116 270.317 396.369 270.317 397.236 269.836L438.493 246.058C438.878 245.769 439.071 245.48 439.167 245.191Z" fill="url(#paint11_linear_3_2)"/>
<path d="M394.441 261.942L352.799 237.875C352.124 237.49 352.221 236.72 352.992 236.238L394.248 212.461C395.116 211.979 396.272 211.979 397.044 212.364L438.685 236.335C439.36 236.72 439.264 237.49 438.493 237.971L397.236 261.845C396.369 262.23 395.116 262.327 394.441 261.942Z" fill="url(#paint12_linear_3_2)"/>
<path d="M394.537 259.15L357.619 237.875C356.944 237.49 357.04 236.912 357.811 236.431L394.344 215.349C395.116 214.964 396.176 214.867 396.851 215.252L433.769 236.527C434.444 236.912 434.348 237.49 433.576 237.971L397.043 259.054C396.272 259.439 395.212 259.439 394.537 259.15Z" fill="#EA4753"/>
<path d="M394.634 257.321L360.8 237.779C360.221 237.49 360.318 236.816 360.992 236.431L394.537 217.081C395.212 216.696 396.176 216.696 396.754 216.985L430.685 236.527C431.263 236.816 431.167 237.49 430.492 237.875L396.947 257.225C396.272 257.61 395.212 257.706 394.634 257.321Z" fill="#EA4753"/>
<path d="M394.923 235.853L390.971 233.639L393.188 232.388L397.14 234.602L394.923 235.853Z" fill="#F7B733"/>
<path d="M402.345 235.565L398.393 237.875L396.176 236.624L400.128 234.313L402.345 235.565Z" fill="#F7B733"/>
<path d="M394.055 236.431L391.838 237.682L389.718 236.431L391.838 235.18L394.055 236.431Z" fill="#F7B733"/>
<path d="M401.478 240.763L399.357 242.014L393.091 238.356L395.308 237.105L401.478 240.763Z" fill="#F7B733"/>
<path d="M364.734 296.706L318.72 322.809L319.149 323.562L365.163 297.459L364.734 296.706Z" fill="#F7B733"/>
<g opacity="0.32">
<path d="M215.053 219.199L229.127 227.189V225.649L215.053 217.659V219.199Z" fill="#EA4753"/>
<path d="M207.92 215.06L212.933 217.948V216.408L207.92 213.52V215.06Z" fill="#EA4753"/>
<path d="M202.329 211.883L205.703 213.808V212.268L202.329 210.246V211.883Z" fill="#EA4753"/>
<path d="M221.512 226.419L229.127 230.751V229.211L221.512 224.879V226.419Z" fill="#EA4753"/>
<path d="M209.944 219.777L219.294 225.168V223.628L209.944 218.237V219.777Z" fill="#EA4753"/>
<path d="M204.354 216.6L207.824 218.525V216.985L204.354 215.06V216.6Z" fill="#EA4753"/>
<path d="M199.052 213.52L202.522 215.541V214.001L199.052 211.979V213.52Z" fill="#EA4753"/>
<path d="M223.632 231.136L229.127 234.313V232.773L223.632 229.596V231.136Z" fill="#EA4753"/>
<path d="M219.584 228.826L221.415 229.981V228.345L219.584 227.286V228.826Z" fill="#EA4753"/>
<path d="M213.993 225.649L217.367 227.671V226.034L213.993 224.109V225.649Z" fill="#EA4753"/>
<path d="M208.691 226.227L229.127 237.875V236.335L208.691 224.59V226.227Z" fill="#EA4753"/>
<path d="M201.558 222.087L206.571 224.975V223.435L201.558 220.547V222.087Z" fill="#EA4753"/>
<path d="M223.632 238.26L229.127 241.437V239.897L223.632 236.72V238.26Z" fill="#EA4753"/>
<path d="M210.619 230.848L221.415 237.105V235.468L210.619 229.307V230.848Z" fill="#EA4753"/>
<path d="M205.028 227.671L208.498 229.596V228.056L205.028 226.13V227.671Z" fill="#EA4753"/>
<path d="M217.849 238.549L229.127 244.999V243.458L217.849 237.009V238.549Z" fill="#EA4753"/>
<path d="M207.535 232.58L215.728 237.297L215.632 235.757L207.535 231.04V232.58Z" fill="#EA4753"/>
<path d="M199.823 228.248L205.317 231.425V229.789L199.823 226.612V228.248Z" fill="#EA4753"/>
<path d="M225.367 246.443L229.127 248.561V247.02L225.367 244.806V246.443Z" fill="#EA4753"/>
<path d="M218.138 242.303L223.15 245.191V243.651L218.138 240.763V242.303Z" fill="#EA4753"/>
<path d="M207.824 236.335L216.017 241.052V239.512L207.824 234.794V236.335Z" fill="#EA4753"/>
<path d="M217.463 245.48L229.127 252.122V250.582L217.463 243.844V245.48Z" fill="#EA4753"/>
<path d="M204.354 237.875L215.342 244.229V242.688L204.354 236.335V237.875Z" fill="#EA4753"/>
<path d="M198.763 234.698L202.233 236.72V235.083L198.763 233.158V234.698Z" fill="#EA4753"/>
<path d="M193.365 231.618L196.835 233.639V232.099L193.365 230.077V231.618Z" fill="#EA4753"/>
<path d="M222.186 251.737L229.127 255.684V254.144L222.186 250.101V251.737Z" fill="#EA4753"/>
<path d="M186.617 202.834L176.881 197.25V195.71L186.617 201.294V202.834Z" fill="#EA4753"/>
<path d="M184.593 205.241L176.881 200.812V199.272L184.593 203.604V205.241Z" fill="#EA4753"/>
<path d="M182.472 207.551L176.881 204.374V202.834L182.472 206.011V207.551Z" fill="#EA4753"/>
<path d="M184.978 212.557L176.881 207.936V206.396L184.978 211.017V212.557Z" fill="#EA4753"/>
<path d="M182.472 214.675L176.881 211.498V209.958L182.472 213.134V214.675Z" fill="#EA4753"/>
<path d="M183.918 219.103L176.978 215.06L176.881 213.52L183.918 217.563V219.103Z" fill="#EA4753"/>
<path d="M180.737 220.836L176.978 218.622V217.081L180.737 219.296V220.836Z" fill="#EA4753"/>
<path d="M184.304 226.419L176.978 222.183V220.643L184.304 224.879V226.419Z" fill="#EA4753"/>
<path d="M183.918 229.789L176.978 225.745V224.205L183.918 228.248V229.789Z" fill="#EA4753"/>
<path d="M216.981 248.753L219.969 250.486V248.946L216.981 247.213V248.753Z" fill="#EA4753"/>
<path d="M208.113 243.651L214.86 247.502V245.961L208.113 242.111V243.651Z" fill="#EA4753"/>
<path d="M215.053 178.19L229.127 186.276V184.64L215.053 176.649V178.19Z" fill="#EA4753"/>
<path d="M207.92 174.05L212.933 176.938V175.398L207.92 172.51V174.05Z" fill="#EA4753"/>
<path d="M202.329 170.873L205.703 172.799V171.258L202.329 169.333V170.873Z" fill="#EA4753"/>
<path d="M221.512 185.41L229.127 189.838V188.201L221.512 183.869V185.41Z" fill="#EA4753"/>
<path d="M209.944 178.767L219.294 184.158V182.618L209.944 177.227V178.767Z" fill="#EA4753"/>
<path d="M204.354 175.59L207.824 177.612V175.976L204.354 174.05V175.59Z" fill="#EA4753"/>
<path d="M199.052 172.51L202.522 174.531V172.991L199.052 170.97V172.51Z" fill="#EA4753"/>
<path d="M223.632 190.223L229.127 193.4V191.763L223.632 188.586V190.223Z" fill="#EA4753"/>
<path d="M219.584 187.913L221.415 188.971V187.431L219.584 186.276V187.913Z" fill="#EA4753"/>
<path d="M213.993 184.64L217.367 186.661V185.121L213.993 183.099V184.64Z" fill="#EA4753"/>
<path d="M208.691 185.217L229.127 196.962V195.325L208.691 183.677V185.217Z" fill="#EA4753"/>
<path d="M201.558 181.078L206.571 183.966V182.425L201.558 179.537V181.078Z" fill="#EA4753"/>
<path d="M223.632 197.347L229.127 200.524V198.887L223.632 195.71V197.347Z" fill="#EA4753"/>
<path d="M210.619 189.838L221.415 196.095V194.555L210.619 188.298V189.838Z" fill="#EA4753"/>
<path d="M205.028 186.661L208.498 188.586V187.046L205.028 185.121V186.661Z" fill="#EA4753"/>
<path d="M217.849 197.539L229.127 204.085V202.449L217.849 195.999V197.539Z" fill="#EA4753"/>
<path d="M207.535 191.667L215.728 196.288L215.632 194.747L207.535 190.03V191.667Z" fill="#EA4753"/>
<path d="M199.823 187.239L205.317 190.415V188.875L199.823 185.698V187.239Z" fill="#EA4753"/>
<path d="M225.367 205.433L229.127 207.647V206.011L225.367 203.893V205.433Z" fill="#EA4753"/>
<path d="M218.138 201.294L223.15 204.182V202.641L218.138 199.753V201.294Z" fill="#EA4753"/>
<path d="M207.824 195.421L216.017 200.042V198.502L207.824 193.785V195.421Z" fill="#EA4753"/>
<path d="M217.463 204.47L229.127 211.209V209.573L217.463 202.93V204.47Z" fill="#EA4753"/>
<path d="M204.354 196.962L215.342 203.219V201.679L204.354 195.325V196.962Z" fill="#EA4753"/>
<path d="M198.763 193.689L202.233 195.71V194.17L198.763 192.148V193.689Z" fill="#EA4753"/>
<path d="M193.365 190.608L196.835 192.63V191.089L193.365 189.068V190.608Z" fill="#EA4753"/>
<path d="M222.186 210.728L229.127 214.771V213.134L222.186 209.188V210.728Z" fill="#EA4753"/>
<path d="M186.617 161.824L176.881 156.241V154.701L186.617 160.284V161.824Z" fill="#EA4753"/>
<path d="M184.593 164.231L176.881 159.803V158.262L184.593 162.691V164.231Z" fill="#EA4753"/>
<path d="M182.472 166.541L176.881 163.365V161.824L182.472 165.001V166.541Z" fill="#EA4753"/>
<path d="M184.978 171.547L176.881 166.926V165.386L184.978 170.007V171.547Z" fill="#EA4753"/>
<path d="M182.472 173.665L176.881 170.488V168.948L182.472 172.125V173.665Z" fill="#EA4753"/>
<path d="M183.918 178.093L176.978 174.05L176.881 172.51L183.918 176.553V178.093Z" fill="#EA4753"/>
<path d="M180.737 179.826L176.978 177.612V176.072L180.737 178.286V179.826Z" fill="#EA4753"/>
<path d="M184.304 185.41L176.978 181.174V179.634L184.304 183.869V185.41Z" fill="#EA4753"/>
<path d="M183.918 188.779L176.978 184.736V183.196L183.918 187.239V188.779Z" fill="#EA4753"/>
<path d="M216.981 207.744L219.969 209.476V207.936L216.981 206.203V207.744Z" fill="#EA4753"/>
<path d="M208.113 202.641L214.86 206.492V204.952L208.113 201.101V202.641Z" fill="#EA4753"/>
<path d="M200.498 257.802L211.872 264.348V262.808L200.498 256.262V257.802Z" fill="#EA4753"/>
<path d="M192.786 253.374L197.22 255.973V254.337L192.786 251.834V253.374Z" fill="#EA4753"/>
</g>
<path d="M138.806 337.607C137.842 337.607 136.878 337.318 136.011 336.837L111.72 322.782C110.949 322.301 110.563 321.531 110.563 320.664C110.563 319.798 111.045 319.028 111.72 318.546L136.011 304.491C137.746 303.529 139.866 303.529 141.602 304.491L165.893 318.546C166.664 318.931 167.049 319.798 167.049 320.664C167.049 321.531 166.567 322.301 165.893 322.782L141.602 336.837C140.734 337.415 139.77 337.607 138.806 337.607ZM138.806 304.876C138.035 304.876 137.167 305.069 136.493 305.454L112.202 319.509C111.72 319.798 111.43 320.279 111.43 320.76C111.43 321.338 111.72 321.819 112.202 322.012L136.493 336.067C137.939 336.933 139.77 336.933 141.12 336.067L165.411 322.012C165.893 321.723 166.182 321.242 166.182 320.76C166.182 320.183 165.893 319.702 165.411 319.509L141.12 305.454C140.445 305.069 139.577 304.876 138.806 304.876Z" fill="#F7B733"/>
<path d="M384.705 193.881C383.741 193.881 382.681 193.592 381.813 193.111L357.137 178.863C356.462 178.478 356.076 177.804 356.076 177.034C356.076 176.264 356.462 175.59 357.137 175.205L364.655 170.873C366.39 169.814 368.607 169.814 370.439 170.873L395.116 185.121C395.79 185.506 396.176 186.18 396.176 186.95C396.176 187.72 395.79 188.394 395.116 188.779L387.597 193.111C386.729 193.592 385.669 193.881 384.705 193.881ZM367.547 171.066C366.68 171.066 365.908 171.258 365.137 171.74L357.619 176.072C357.233 176.264 357.04 176.649 357.04 177.131C357.04 177.516 357.233 177.901 357.619 178.19L382.295 192.437C383.838 193.303 385.669 193.303 387.115 192.437L394.634 188.105C395.019 187.912 395.212 187.527 395.212 187.046C395.212 186.661 395.019 186.276 394.634 185.987L369.957 171.74C369.282 171.355 368.415 171.066 367.547 171.066Z" fill="#F7B733"/>
<path d="M366.39 205.337C365.426 205.337 364.366 205.048 363.499 204.567L338.822 190.319C338.147 189.934 337.762 189.26 337.762 188.49C337.762 187.72 338.147 187.046 338.822 186.661L346.341 182.329C348.076 181.27 350.293 181.27 352.124 182.329L376.801 196.577C377.476 196.962 377.861 197.636 377.861 198.406C377.861 199.176 377.476 199.85 376.801 200.235L369.282 204.567C368.318 205.048 367.354 205.337 366.39 205.337ZM349.232 182.522C348.365 182.522 347.594 182.714 346.823 183.196L339.304 187.528C338.918 187.72 338.726 188.105 338.726 188.586C338.726 188.972 338.918 189.357 339.304 189.645L363.981 203.893C365.523 204.759 367.354 204.759 368.8 203.893L376.319 199.561C376.704 199.368 376.897 198.983 376.897 198.502C376.897 198.117 376.704 197.732 376.319 197.443L351.642 183.196C350.871 182.714 350.1 182.522 349.232 182.522Z" fill="#F7B733"/>
<path d="M117.503 349.929C116.539 349.929 115.479 349.641 114.611 349.159L89.9348 334.912C89.2601 334.527 88.8745 333.853 88.8745 333.083C88.8745 332.313 89.2601 331.639 89.9348 331.254L97.4535 326.922C99.1886 325.863 101.406 325.863 103.237 326.922L127.914 341.169C128.588 341.554 128.974 342.228 128.974 342.998C128.974 343.768 128.588 344.442 127.914 344.827L120.395 349.159C119.528 349.641 118.467 349.929 117.503 349.929ZM100.345 327.114C99.4777 327.114 98.7066 327.307 97.9355 327.788L90.4168 332.12C90.0312 332.313 89.8384 332.698 89.8384 333.179C89.8384 333.564 90.0312 333.949 90.4168 334.238L115.093 348.485C116.636 349.352 118.467 349.352 119.913 348.485L127.432 344.153C127.817 343.961 128.01 343.576 128.01 343.094C128.01 342.709 127.817 342.324 127.432 342.035L102.755 327.788C102.08 327.307 101.213 327.114 100.345 327.114Z" fill="#F7B733"/>
<path d="M98.4174 361C97.4535 361 96.3932 360.711 95.5256 360.23L70.849 345.982C70.1742 345.597 69.7887 344.923 69.7887 344.153C69.7887 343.383 70.1742 342.709 70.849 342.324L78.3676 337.992C80.1027 336.933 82.3198 336.933 84.1512 337.992L108.828 352.24C109.503 352.625 109.888 353.299 109.888 354.069C109.888 354.839 109.503 355.513 108.828 355.898L101.309 360.23C100.442 360.711 99.3813 361 98.4174 361ZM81.2594 338.185C80.3919 338.185 79.6208 338.377 78.8496 338.859L71.3309 343.191C70.9454 343.383 70.7526 343.768 70.7526 344.25C70.7526 344.635 70.9454 345.02 71.3309 345.308L96.0076 359.556C97.5499 360.422 99.3813 360.422 100.827 359.556L108.346 355.224C108.731 355.031 108.924 354.646 108.924 354.165C108.924 353.78 108.731 353.395 108.346 353.106L83.7657 338.859C82.9945 338.377 82.127 338.185 81.2594 338.185Z" fill="#F7B733"/>
</g>
<defs>
<linearGradient id="paint0_linear_3_2" x1="111.143" y1="154.761" x2="43.5665" y2="209.021" gradientUnits="userSpaceOnUse">
<stop stop-color="#BCD5FF"/>
<stop offset="0.151" stop-color="#A3BEFF"/>
<stop offset="0.3866" stop-color="#82A0FF"/>
<stop offset="0.6124" stop-color="#6A8AFF"/>
<stop offset="0.8221" stop-color="#5C7DFF"/>
<stop offset="1" stop-color="#5778FF"/>
</linearGradient>
<linearGradient id="paint1_linear_3_2" x1="123.928" y1="171.287" x2="29.8562" y2="141.867" gradientUnits="userSpaceOnUse">
<stop stop-color="#C0D6FF"/>
<stop offset="0.2978" stop-color="#C5DBFF"/>
<stop offset="0.6488" stop-color="#D3E9FF"/>
<stop offset="1" stop-color="#E9FFFF"/>
</linearGradient>
<linearGradient id="paint2_linear_3_2" x1="244.074" y1="326.181" x2="244.074" y2="-4.28235e-06" gradientUnits="userSpaceOnUse">
<stop stop-color="#5778FF"/>
<stop offset="0.1779" stop-color="#5C7DFF"/>
<stop offset="0.3876" stop-color="#6A8AFF"/>
<stop offset="0.6134" stop-color="#82A0FF"/>
<stop offset="0.849" stop-color="#A3BEFF"/>
<stop offset="1" stop-color="#BCD5FF"/>
</linearGradient>
<linearGradient id="paint3_linear_3_2" x1="288.3" y1="86.945" x2="288.3" y2="63.5776" gradientUnits="userSpaceOnUse">
<stop stop-color="#C0D6FF"/>
<stop offset="0.2978" stop-color="#C5DBFF"/>
<stop offset="0.6488" stop-color="#D3E9FF"/>
<stop offset="1" stop-color="#E9FFFF"/>
</linearGradient>
<linearGradient id="paint4_linear_3_2" x1="237.282" y1="294.555" x2="347.868" y2="102.769" gradientUnits="userSpaceOnUse">
<stop stop-color="#C0D6FF"/>
<stop offset="0.2978" stop-color="#C5DBFF"/>
<stop offset="0.6488" stop-color="#D3E9FF"/>
<stop offset="1" stop-color="#E9FFFF"/>
</linearGradient>
<linearGradient id="paint5_linear_3_2" x1="267.793" y1="161.642" x2="216.186" y2="68.5948" gradientUnits="userSpaceOnUse">
<stop stop-color="#5778FF"/>
<stop offset="0.0397918" stop-color="#5C7DFF"/>
<stop offset="0.086699" stop-color="#6A8AFF"/>
<stop offset="0.1372" stop-color="#82A0FF"/>
<stop offset="0.1899" stop-color="#A3BEFF"/>
<stop offset="0.2237" stop-color="#BCD5FF"/>
</linearGradient>
<linearGradient id="paint6_linear_3_2" x1="204.267" y1="161.972" x2="238.614" y2="94.7394" gradientUnits="userSpaceOnUse">
<stop stop-color="#C0D6FF"/>
<stop offset="0.2978" stop-color="#C5DBFF"/>
<stop offset="0.6488" stop-color="#D3E9FF"/>
<stop offset="1" stop-color="#E9FFFF"/>
</linearGradient>
<linearGradient id="paint7_linear_3_2" x1="154.153" y1="303.567" x2="261.793" y2="112.588" gradientUnits="userSpaceOnUse">
<stop stop-color="#C0D6FF"/>
<stop offset="0.1196" stop-color="#D0E6FF"/>
<stop offset="0.2627" stop-color="#E9FFFF"/>
<stop offset="0.5143" stop-color="#C0D6FF"/>
<stop offset="0.6239" stop-color="#D0E6FF"/>
<stop offset="0.755" stop-color="#E9FFFF"/>
<stop offset="1" stop-color="#C0D6FF"/>
</linearGradient>
<linearGradient id="paint8_linear_3_2" x1="420.577" y1="239.249" x2="353" y2="293.51" gradientUnits="userSpaceOnUse">
<stop stop-color="#BCD5FF"/>
<stop offset="0.151" stop-color="#A3BEFF"/>
<stop offset="0.3866" stop-color="#82A0FF"/>
<stop offset="0.6124" stop-color="#6A8AFF"/>
<stop offset="0.8221" stop-color="#5C7DFF"/>
<stop offset="1" stop-color="#5778FF"/>
</linearGradient>
<linearGradient id="paint9_linear_3_2" x1="433.362" y1="255.776" x2="339.29" y2="226.356" gradientUnits="userSpaceOnUse">
<stop stop-color="#C0D6FF"/>
<stop offset="0.2978" stop-color="#C5DBFF"/>
<stop offset="0.6488" stop-color="#D3E9FF"/>
<stop offset="1" stop-color="#E9FFFF"/>
</linearGradient>
<linearGradient id="paint10_linear_3_2" x1="433.362" y1="255.776" x2="339.29" y2="226.356" gradientUnits="userSpaceOnUse">
<stop stop-color="#C0D6FF"/>
<stop offset="0.2978" stop-color="#C5DBFF"/>
<stop offset="0.6488" stop-color="#D3E9FF"/>
<stop offset="1" stop-color="#E9FFFF"/>
</linearGradient>
<linearGradient id="paint11_linear_3_2" x1="420.577" y1="221.475" x2="353" y2="275.736" gradientUnits="userSpaceOnUse">
<stop stop-color="#BCD5FF"/>
<stop offset="0.151" stop-color="#A3BEFF"/>
<stop offset="0.3866" stop-color="#82A0FF"/>
<stop offset="0.6124" stop-color="#6A8AFF"/>
<stop offset="0.8221" stop-color="#5C7DFF"/>
<stop offset="1" stop-color="#5778FF"/>
</linearGradient>
<linearGradient id="paint12_linear_3_2" x1="433.362" y1="238.002" x2="339.29" y2="208.582" gradientUnits="userSpaceOnUse">
<stop stop-color="#C0D6FF"/>
<stop offset="0.2978" stop-color="#C5DBFF"/>
<stop offset="0.6488" stop-color="#D3E9FF"/>
<stop offset="1" stop-color="#E9FFFF"/>
</linearGradient>
<clipPath id="clip0_3_2">
<rect width="457" height="361" fill="white"/>
</clipPath>
</defs>
</svg>
